<svg xmlns="http://www.w3.org/2000/svg" width="52.975" height="43.305" viewBox="0 0 52.975 43.305">
  <g id="Ambulance" transform="translate(-4 -96)">
    <path id="Path_16586" data-name="Path 16586" d="M157.045,98.523a2.523,2.523,0,0,0-5.045,0V100.2h5.045Z" transform="translate(-132.444)" fill="#007b73"/>
    <path id="Path_16587" data-name="Path 16587" d="M58.307,388a6.306,6.306,0,1,0,6.306,6.306A6.306,6.306,0,0,0,58.307,388Zm0,8.829a2.523,2.523,0,1,1,2.523-2.523A2.523,2.523,0,0,1,58.307,396.829Z" transform="translate(-42.955 -261.308)" fill="#007b73"/>
    <path id="Path_16588" data-name="Path 16588" d="M362.307,388a6.306,6.306,0,1,0,6.306,6.306A6.306,6.306,0,0,0,362.307,388Zm0,8.829a2.523,2.523,0,1,1,2.523-2.523A2.523,2.523,0,0,1,362.307,396.829Z" transform="translate(-315.002 -261.308)" fill="#007b73"/>
    <path id="Path_16589" data-name="Path 16589" d="M55.58,167.965,49.859,165.1c-.977-1.51-5.347-8.247-6.6-9.882a1.261,1.261,0,0,0-1-.5H36.312l-2.318-4.635A3.763,3.763,0,0,0,30.61,148H6.523A2.526,2.526,0,0,0,4,150.522V177.01a3.788,3.788,0,0,0,3.784,3.784h.107a7.568,7.568,0,1,1,14.921,0H39.844a7.568,7.568,0,1,1,14.974-.368,3.788,3.788,0,0,0,2.157-3.416v-6.788a2.509,2.509,0,0,0-1.395-2.256Zm-26.774-5.671a1.261,1.261,0,0,1-1.261,1.261H24.6V166.5a1.261,1.261,0,0,1-1.261,1.261H20.817a1.261,1.261,0,0,1-1.261-1.261v-2.943H16.613a1.261,1.261,0,0,1-1.261-1.261v-2.523a1.261,1.261,0,0,1,1.261-1.261h2.943v-2.943a1.261,1.261,0,0,1,1.261-1.261H23.34a1.261,1.261,0,0,1,1.261,1.261v2.943h2.943a1.261,1.261,0,0,1,1.261,1.261ZM40.578,170.7H39a1.261,1.261,0,1,1,0-2.523h1.577a1.261,1.261,0,1,1,0,2.523Zm6.593-5.361H38.9a1.261,1.261,0,0,1-1.261-1.261V157.67a1.261,1.261,0,0,1,1.261-1.261h2.869a1.261,1.261,0,0,1,1.042.551c1.524,2.233,3.771,5.68,4.893,7.41a.631.631,0,0,1-.53.974Z" transform="translate(0 -46.534)" fill="#007b73"/>
  </g>
</svg>
