<svg xmlns="http://www.w3.org/2000/svg" width="48.006" height="52.414" viewBox="0 0 48.006 52.414">
  <g id="Call_center" data-name="Call center" transform="translate(-5.42 -2.75)">
    <path id="Path_16601" data-name="Path 16601" d="M31.19,41.761l.008.636.223.751h4.986l.338-1.123V41.72a6.923,6.923,0,0,1-2.823.594A7,7,0,0,1,31.19,41.761Z" transform="translate(-4.499 -6.803)" fill="#007b73"/>
    <path id="Path_16602" data-name="Path 16602" d="M42.42,40.047H48.4l-.107-1.857H42.42Z" transform="translate(-6.46 -6.187)" fill="#007b73"/>
    <path id="Path_16603" data-name="Path 16603" d="M44.471,35.6H34.722V32.5H32.3a4.18,4.18,0,0,1-.677.446,4.338,4.338,0,0,1-2.2.586,4.7,4.7,0,0,1-3.954-2.229c-.025-.041-.512-.8-1.131-1.758C23.224,27.83,21.706,25.47,21.7,25.47c-.38-.6-1.345.016-1.527-.52-.652-2.154-.924-2.344-.735-2.608.371-.528,3,.462,3-.751.058-.314-.371-2.452,1.519-3.632a7.813,7.813,0,0,0,3.178-3.3A22.845,22.845,0,0,0,34.2,18.478a3.253,3.253,0,0,1,2.27,3.112.618.618,0,0,0,.619.619c.924.116,2.6-.305,2.352.437-.817,2.187-.685,2.534-1.1,2.534h-.693a.619.619,0,0,0-.52.289c-.916,1.354-1.618,2.435-2.171,3.318h6.661l-.652-11.63v-.017a11.556,11.556,0,0,0-23.112-.017L16.9,34.359h6.05l-.05-2.98a1.832,1.832,0,0,1,.4-1.156l.842,1.3.066,4.069H14.359A8.958,8.958,0,0,0,5.42,44.545v10.5a.624.624,0,0,0,.619.619H11.9V48.169a.619.619,0,1,1,1.238,0v7.495H45.692V48.169a.619.619,0,1,1,1.238,0v7.495h5.877a.624.624,0,0,0,.619-.619v-10.5A8.967,8.967,0,0,0,44.471,35.6ZM23.629,42.8a.622.622,0,0,0-.5-.256h-.058l-3.1.289,4.565-5.34,3.277,10.995Zm1.824-6.546c0-.017.008-.025.008-.041l-.05-3.046a5.85,5.85,0,0,0,4.012,1.61,5.625,5.625,0,0,0,2.815-.743,6.1,6.1,0,0,0,1.246-.924v2.881c-.008.016-.033.033-.041.058L29.415,49.555Zm10.318,6.29a.651.651,0,0,0-.561.256l-4.177,5.687L34.31,37.488l4.565,5.34Z" transform="translate(0 -0.499)" fill="#007b73"/>
    <path id="Path_16604" data-name="Path 16604" d="M17.166,27.554h.239l.611-10.995a12.794,12.794,0,0,1,25.588.083L44.223,27.6h.239c.02,0,.038-.006.058-.006v1.929H33a2.513,2.513,0,0,0-2.135-.961c-1.276,0-2.323.711-2.323,1.585s1.046,1.576,2.323,1.576A2.519,2.519,0,0,0,33,30.765H45.139a.619.619,0,0,0,.619-.619V27.359a3.74,3.74,0,0,0-.825-7.226l-.2-3.549a13.921,13.921,0,0,0-27.841-.025l-.19,3.533a3.745,3.745,0,0,0,.462,7.462Z" transform="translate(-1.395 0)" fill="#007b73"/>
  </g>
</svg>
