<svg xmlns="http://www.w3.org/2000/svg" width="50.482" height="50.481" viewBox="0 0 50.482 50.481">
  <path id="Call" d="M25.241,0A25.241,25.241,0,1,0,43.171,42.995a2.072,2.072,0,0,0-.1-2.911l-3.984-3.925a3.639,3.639,0,0,0,.263-3.968,10.783,10.783,0,0,0-4.266-4.414,4.1,4.1,0,0,0-2.074-.617,3.435,3.435,0,0,0-.787.093,7.061,7.061,0,0,0-2.526,1.23,1.566,1.566,0,0,1-.962.3,2.264,2.264,0,0,1-1.288-.408,30.766,30.766,0,0,1-6.364-6.364,2.047,2.047,0,0,1-.114-2.252,6.98,6.98,0,0,0,1.23-2.526,3.767,3.767,0,0,0-.522-2.858A10.781,10.781,0,0,0,17.261,10.1a3.944,3.944,0,0,0-1.831-.474,3.772,3.772,0,0,0-2.771,1.286,29.227,29.227,0,0,0-2.105,2.579,4.139,4.139,0,0,0-.573,2.875l0,.019a11.943,11.943,0,0,0,1.337,4.233,31.4,31.4,0,0,0,5.994,8.243c.545.557,2.718,2.73,3.276,3.275a31.436,31.436,0,0,0,8.242,5.994,11.979,11.979,0,0,0,4.233,1.337h.02c.241.011.5.025.749.025a3.482,3.482,0,0,0,2.056-.556l2.621,2.583a21.005,21.005,0,1,1,7.747-16.281,2.112,2.112,0,0,0,4.224,0A25.271,25.271,0,0,0,25.241,0Z" fill="#007b73"/>
</svg>
