<svg xmlns="http://www.w3.org/2000/svg" width="41.019" height="47.622" viewBox="0 0 41.019 47.622">
  <g id="guard" transform="translate(-35.496 -0.001)">
    <g id="Group_68156" data-name="Group 68156" transform="translate(35.496 29.729)">
      <g id="Group_68155" data-name="Group 68155" transform="translate(0)">
        <path id="Path_16590" data-name="Path 16590" d="M49.386,327.245a1.423,1.423,0,0,1-2.186-.456l-3.583-7.174A14.2,14.2,0,0,0,35.5,332.434v3.652a1.423,1.423,0,0,0,1.423,1.423H54.8V322.721Z" transform="translate(-35.496 -319.615)" fill="#007b73"/>
      </g>
    </g>
    <g id="Group_68158" data-name="Group 68158" transform="translate(57.649 29.816)">
      <g id="Group_68157" data-name="Group 68157">
        <path id="Path_16591" data-name="Path 16591" d="M284.59,320.55l-3.52,7.084a1.423,1.423,0,0,1-2.2.447l-5.2-4.461v14.737h17.443a1.423,1.423,0,0,0,1.423-1.423v-3.652A14.2,14.2,0,0,0,284.59,320.55Zm-.187,13.566H280a1.423,1.423,0,1,1,0-2.847h4.4a1.423,1.423,0,0,1,0,2.847Z" transform="translate(-273.664 -320.55)" fill="#007b73"/>
      </g>
    </g>
    <g id="Group_68160" data-name="Group 68160" transform="translate(44.978 18.87)">
      <g id="Group_68159" data-name="Group 68159" transform="translate(0)">
        <path id="Path_16592" data-name="Path 16592" d="M159.493,204.18a11.066,11.066,0,0,0-.075-1.278c-2.953,1.719-7.136,2.4-10.913,2.4h-.017c-3.791,0-8.011-.693-10.972-2.441a11.012,11.012,0,0,0,3.6,9.535,14.138,14.138,0,0,0-2.341.365l2.622,5.251,3.91-3.266a11.033,11.033,0,0,0,6.581-.086l3.884,3.329,2.573-5.178a14.125,14.125,0,0,0-2.54-.414A11,11,0,0,0,159.493,204.18Z" transform="translate(-137.437 -202.864)" fill="#007b73"/>
      </g>
    </g>
    <g id="Group_68162" data-name="Group 68162" transform="translate(44.301 12.18)">
      <g id="Group_68161" data-name="Group 68161" transform="translate(0)">
        <path id="Path_16593" data-name="Path 16593" d="M141.911,130.938h-.02a41.566,41.566,0,0,0-11.726,1.9c1.082,2.88,6.434,4.38,11.728,4.38h.017c5.33,0,10.718-1.52,11.749-4.44A44,44,0,0,0,141.911,130.938Z" transform="translate(-130.164 -130.938)" fill="#007b73"/>
      </g>
    </g>
    <g id="Group_68164" data-name="Group 68164" transform="translate(39.542 0.001)">
      <g id="Group_68163" data-name="Group 68163" transform="translate(0 0)">
        <path id="Path_16594" data-name="Path 16594" d="M111.932,5.872A1.423,1.423,0,0,0,111,4.915L95.929.069a1.424,1.424,0,0,0-.872,0L79.986,4.915a1.423,1.423,0,0,0-.66,2.264l3.494,4.213A44.1,44.1,0,0,1,95.483,9.333h.02a46.457,46.457,0,0,1,12.709,2l3.448-4.158A1.423,1.423,0,0,0,111.932,5.872Z" transform="translate(-78.998 -0.001)" fill="#007b73"/>
      </g>
    </g>
  </g>
</svg>
