<svg xmlns="http://www.w3.org/2000/svg" width="35.042" height="43.803" viewBox="0 0 35.042 43.803">
  <g id="idea" transform="translate(-48.003)">
    <g id="Group_20564" data-name="Group 20564" transform="translate(48.003)">
      <g id="Group_20563" data-name="Group 20563">
        <path id="Path_12282" data-name="Path 12282" d="M232.733,4.38a.73.73,0,0,0,.73-.73V.73a.73.73,0,0,0-1.46,0V3.65A.73.73,0,0,0,232.733,4.38Z" transform="translate(-215.212)" fill="#fff"/>
        <path id="Path_12283" data-name="Path 12283" d="M140.075,25.707l1.46,2.528a.73.73,0,0,0,1.269-.722l0-.008-1.46-2.528a.73.73,0,0,0-1.269.722Z" transform="translate(-131.582 -22.362)" fill="#fff"/>
        <path id="Path_12284" data-name="Path 12284" d="M72.972,93.332l.008,0,2.528,1.46a.73.73,0,0,0,.738-1.26l-.008,0-2.528-1.46a.73.73,0,0,0-.738,1.26Z" transform="translate(-70.366 -83.58)" fill="#fff"/>
        <path id="Path_12285" data-name="Path 12285" d="M52.383,184.73a.73.73,0,0,0-.73-.73h-2.92a.73.73,0,0,0,0,1.46h2.92A.73.73,0,0,0,52.383,184.73Z" transform="translate(-48.003 -167.209)" fill="#fff"/>
        <path id="Path_12286" data-name="Path 12286" d="M75.517,260.067l-.008,0-2.528,1.46A.73.73,0,0,0,73.7,262.8l.008-.005,2.528-1.46a.73.73,0,1,0-.721-1.269Z" transform="translate(-70.365 -236.248)" fill="#fff"/>
        <path id="Path_12287" data-name="Path 12287" d="M367.231,261.537l-.008,0-2.528-1.46a.73.73,0,1,0-.739,1.259l.008,0,2.528,1.46a.73.73,0,1,0,.739-1.26Z" transform="translate(-334.796 -236.248)" fill="#fff"/>
        <path id="Path_12288" data-name="Path 12288" d="M387.653,184h-2.92a.73.73,0,1,0,0,1.46h2.92a.73.73,0,1,0,0-1.46Z" transform="translate(-353.341 -167.209)" fill="#fff"/>
        <path id="Path_12289" data-name="Path 12289" d="M364.379,94.895a.73.73,0,0,0,.365-.1l2.528-1.46a.73.73,0,0,0-.722-1.269l-.008,0-2.528,1.46a.73.73,0,0,0,.365,1.362Z" transform="translate(-334.845 -83.579)" fill="#fff"/>
        <path id="Path_12290" data-name="Path 12290" d="M308.362,28.5h0a.73.73,0,0,0,1-.268h0l1.46-2.528a.73.73,0,0,0-1.26-.739l0,.008-1.46,2.528A.73.73,0,0,0,308.362,28.5Z" transform="translate(-284.272 -22.362)" fill="#fff"/>
        <path id="Path_12291" data-name="Path 12291" d="M176.033,174.6a.73.73,0,0,0,.73-.73v-8.03h1.46a2.92,2.92,0,1,0-2.92-2.92v1.46h-1.46v-1.46a2.92,2.92,0,1,0-2.92,2.92h1.46v8.03a.73.73,0,0,0,1.46,0v-8.03h1.46v8.03A.73.73,0,0,0,176.033,174.6Zm.73-11.681a1.46,1.46,0,1,1,1.46,1.46h-1.46Zm-4.38,1.46h-1.46a1.46,1.46,0,1,1,1.46-1.46Z" transform="translate(-157.052 -145.399)" fill="#fff"/>
        <path id="Path_12292" data-name="Path 12292" d="M124.317,64.016a11.681,11.681,0,0,0-7.971,20.7,2.176,2.176,0,0,1,.834,1.67v1.712a2.19,2.19,0,0,0,1.46,2.056v.864a2.176,2.176,0,0,0,.569,1.46,2.157,2.157,0,0,0,0,2.92,2.181,2.181,0,0,0,1.621,3.65.712.712,0,0,0,.6-1.122.775.775,0,0,0-.082-.126.754.754,0,0,0-.2-.133c-.021-.011-.042-.02-.064-.028a.774.774,0,0,0-.23-.046c-.007,0-.014,0-.021,0a.73.73,0,1,1,0-1.46h2.92a.73.73,0,0,0,0-1.46h-2.92a.73.73,0,1,1,0-1.46h2.92a.73.73,0,0,0,0-1.46h-2.92a.73.73,0,0,1-.73-.73v-.73h3.65a.73.73,0,0,0,0-1.46h-4.38a.73.73,0,0,1-.73-.73V86.381a3.629,3.629,0,0,0-1.369-2.8,10.221,10.221,0,0,1,6.977-18.1,10.338,10.338,0,0,1,9.723,10.144,10.161,10.161,0,0,1-3.793,8,3.619,3.619,0,0,0-1.318,2.842v1.627a.73.73,0,0,1-.73.73h-2.19a.73.73,0,1,0,0,1.46h1.46v.73a.73.73,0,0,1-.73.73h-.73a.73.73,0,1,0,0,1.46h.73a.73.73,0,1,1,0,1.46h-.73a.73.73,0,1,0,0,1.46h.73a.73.73,0,1,1,0,1.46h-3.65a.73.73,0,1,0,0,1.46h2.8a2.19,2.19,0,0,1-3.7.725.73.73,0,1,0-1.091.971,3.642,3.642,0,0,0,6.316-1.811,2.169,2.169,0,0,0,.953-3.535,2.157,2.157,0,0,0,0-2.92,2.176,2.176,0,0,0,.569-1.46v-.864a2.19,2.19,0,0,0,1.46-2.056V86.466a2.195,2.195,0,0,1,.775-1.706,11.611,11.611,0,0,0,4.336-9.15A11.816,11.816,0,0,0,124.317,64.016Z" transform="translate(-106.229 -58.161)" fill="#fff"/>
      </g>
    </g>
  </g>
</svg>
