<svg id="leadership" xmlns="http://www.w3.org/2000/svg" width="37.592" height="37.592" viewBox="0 0 37.592 37.592">
  <g id="Group_20546" data-name="Group 20546" transform="translate(14.88)">
    <path id="Path_12271" data-name="Path 12271" d="M13.416,7.832A3.878,3.878,0,0,1,9.5,3.916a3.916,3.916,0,0,1,7.832,0A3.878,3.878,0,0,1,13.416,7.832Zm0-6.265a2.409,2.409,0,0,0-2.349,2.349,2.349,2.349,0,0,0,4.7,0A2.409,2.409,0,0,0,13.416,1.566Z" transform="translate(-9.5)" fill="#fff"/>
  </g>
  <g id="Group_20547" data-name="Group 20547" transform="translate(10.964 9.398)">
    <path id="Path_12272" data-name="Path 12272" d="M21.88,12.265a.74.74,0,0,1-.783-.783V9.916a2.409,2.409,0,0,0-2.349-2.349H10.916A2.409,2.409,0,0,0,8.566,9.916v1.566a.74.74,0,0,1-.783.783A.74.74,0,0,1,7,11.482V9.916A3.878,3.878,0,0,1,10.916,6h7.832a3.878,3.878,0,0,1,3.916,3.916v1.566A.74.74,0,0,1,21.88,12.265Z" transform="translate(-7 -6)" fill="#fff"/>
  </g>
  <g id="Group_20548" data-name="Group 20548" transform="translate(3.916 21.929)">
    <path id="Path_12273" data-name="Path 12273" d="M6.416,21.832a3.916,3.916,0,0,1,0-7.832,3.916,3.916,0,1,1,0,7.832Zm0-6.265a2.349,2.349,0,0,0,0,4.7,2.349,2.349,0,0,0,0-4.7Z" transform="translate(-2.5 -14)" fill="#fff"/>
  </g>
  <g id="Group_20549" data-name="Group 20549" transform="translate(0 31.326)">
    <path id="Path_12274" data-name="Path 12274" d="M14.88,26.265a.74.74,0,0,1-.783-.783V23.916a2.409,2.409,0,0,0-2.349-2.349H3.916a2.409,2.409,0,0,0-2.349,2.349v1.566a.74.74,0,0,1-.783.783A.74.74,0,0,1,0,25.482V23.916A3.878,3.878,0,0,1,3.916,20h7.832a3.878,3.878,0,0,1,3.916,3.916v1.566A.74.74,0,0,1,14.88,26.265Z" transform="translate(0 -20)" fill="#fff"/>
  </g>
  <g id="Group_20550" data-name="Group 20550" transform="translate(25.844 21.929)">
    <path id="Path_12275" data-name="Path 12275" d="M20.416,21.832a3.916,3.916,0,1,1,3.916-3.916A3.878,3.878,0,0,1,20.416,21.832Zm0-6.265a2.349,2.349,0,1,0,2.349,2.349A2.409,2.409,0,0,0,20.416,15.566Z" transform="translate(-16.5 -14)" fill="#fff"/>
  </g>
  <g id="Group_20551" data-name="Group 20551" transform="translate(21.929 31.326)">
    <path id="Path_12276" data-name="Path 12276" d="M28.88,26.265a.74.74,0,0,1-.783-.783V23.916a2.409,2.409,0,0,0-2.349-2.349H17.916a2.409,2.409,0,0,0-2.349,2.349v1.566a.783.783,0,1,1-1.566,0V23.916A3.878,3.878,0,0,1,17.916,20h7.832a3.878,3.878,0,0,1,3.916,3.916v1.566A.74.74,0,0,1,28.88,26.265Z" transform="translate(-14 -20)" fill="#fff"/>
  </g>
  <g id="Group_20552" data-name="Group 20552" transform="translate(3.133 4.481)">
    <path id="Path_12277" data-name="Path 12277" d="M2.783,17.959A.74.74,0,0,1,2,17.176,15.921,15.921,0,0,1,11.085,2.922a.969.969,0,0,1,1.1.313.969.969,0,0,1-.313,1.1,14.036,14.036,0,0,0-8.3,12.844A.74.74,0,0,1,2.783,17.959Z" transform="translate(-2 -2.861)" fill="#fff"/>
  </g>
  <g id="Group_20553" data-name="Group 20553" transform="translate(24.272 4.413)">
    <path id="Path_12278" data-name="Path 12278" d="M24.9,17.984a.74.74,0,0,1-.783-.783A14.153,14.153,0,0,0,15.972,4.357a.673.673,0,0,1-.313-1.1.756.756,0,0,1,1.1-.313A16.056,16.056,0,0,1,25.683,17.2.74.74,0,0,1,24.9,17.984Z" transform="translate(-15.496 -2.817)" fill="#fff"/>
  </g>
  <g id="Group_20554" data-name="Group 20554" transform="translate(16.562 32.852)">
    <path id="Path_12279" data-name="Path 12279" d="M12.808,22.581a4.829,4.829,0,0,1-1.566-.157c-.47,0-.783-.47-.627-.783,0-.47.47-.783.783-.627a9.483,9.483,0,0,0,2.976,0,1.058,1.058,0,0,1,.94.627c.157.313-.313.783-.627.94h-1.88Z" transform="translate(-10.574 -20.974)" fill="#fff"/>
  </g>
</svg>
