<svg xmlns="http://www.w3.org/2000/svg" width="62.882" height="40.623" viewBox="0 0 62.882 40.623">
  <g id="noun_fire_engine_2507013" data-name="noun_fire engine_2507013" transform="translate(-0.529 -2.578)">
    <g id="Group_68167" data-name="Group 68167" transform="translate(0.529 2.578)">
      <path id="Path_16595" data-name="Path 16595" d="M15.093,292.133a6.085,6.085,0,1,0,4.4,1.771,6.084,6.084,0,0,0-4.4-1.771Zm.038,3.94a2.219,2.219,0,1,1-2.154,2.218,2.218,2.218,0,0,1,2.154-2.218Z" transform="translate(37.251 -263.752)" fill="#007b73"/>
      <path id="Path_16596" data-name="Path 16596" d="M8.5,292.133A6.084,6.084,0,1,0,12.9,293.9,6.084,6.084,0,0,0,8.5,292.133Zm.038,3.94a2.193,2.193,0,1,1-2.154,2.218,2.219,2.219,0,0,1,2.154-2.218Z" transform="translate(8.238 -263.752)" fill="#007b73"/>
      <path id="Path_16597" data-name="Path 16597" d="M44.044,286.878l-.049,0L.98,292.978a.5.5,0,1,0,.145,1l5.712-.809v3.775H3.949a2.818,2.818,0,0,0-2.818,2.816v8.2a2.818,2.818,0,0,0,2.818,2.815h38.61v10.14H45.9a7.091,7.091,0,0,1,14.1-.466h3.41v-8.19H59.119a.5.5,0,1,1,0-1.007h4.292v-4.526H47.894V292.511H42.151v4.428H38.44v-8.254l5.7-.809a.5.5,0,0,0-.091-1Zm-6.613,1.951v8.112H23.139v-6.086ZM22.135,291v5.944H7.842v-3.918ZM6.118,305.473H38.491a.5.5,0,0,1,0,1H6.118a.5.5,0,0,1,0-1Z" transform="translate(-0.529 -286.878)" fill="#007b73"/>
      <path id="Path_16598" data-name="Path 16598" d="M23.8,301.128l-4.06-12.409a1.157,1.157,0,0,0-1.1-.8H9.484v13.207Z" transform="translate(38.886 -282.287)" fill="#007b73"/>
      <path id="Path_16599" data-name="Path 16599" d="M23.171,300.62v-9.131H1.579v7.144a1.988,1.988,0,0,0,1.989,1.988H5.677a7.091,7.091,0,0,1,14.148,0Z" transform="translate(4.092 -266.584)" fill="#007b73"/>
      <path id="Path_16600" data-name="Path 16600" d="M5.763,291.489V301.95h12.75V291.489Z" transform="translate(22.509 -266.584)" fill="#007b73"/>
    </g>
  </g>
</svg>
