<svg id="Page-1" xmlns="http://www.w3.org/2000/svg" width="35.494" height="35.494" viewBox="0 0 35.494 35.494">
  <g id="_005---Folder-Settings" data-name="005---Folder-Settings">
    <path id="Shape" d="M31.945,7.738V6.507a2.961,2.961,0,0,0-2.958-2.958H18.93V2.958A2.961,2.961,0,0,0,15.972,0H2.958A2.961,2.961,0,0,0,0,2.958V15.381a.592.592,0,0,0,1.183,0V2.958A1.775,1.775,0,0,1,2.958,1.183H15.972a1.775,1.775,0,0,1,1.775,1.775V4.141a.592.592,0,0,0,.592.592H28.987a1.775,1.775,0,0,1,1.775,1.775V7.69H14.2a.592.592,0,1,0,0,1.183H31.353a2.961,2.961,0,0,1,2.958,2.958V28.987a2.961,2.961,0,0,1-2.958,2.958H22.48a.592.592,0,1,0,0,1.183h8.874a4.146,4.146,0,0,0,4.141-4.141V11.831A4.145,4.145,0,0,0,31.945,7.738Z" fill="#fff"/>
    <path id="Shape-2" data-name="Shape" d="M16.958,14.183a.592.592,0,1,0,0-1.183H14.592a.592.592,0,0,0,0,1.183Z" transform="translate(-5.718 -5.31)" fill="#fff"/>
    <path id="Shape-3" data-name="Shape" d="M.809,35.119l1.934.644a8.81,8.81,0,0,0,.705,1.7l-.912,1.824a1.183,1.183,0,0,0,.222,1.365l1.07,1.07a1.183,1.183,0,0,0,1.366.222l1.824-.912a8.81,8.81,0,0,0,1.7.705l.644,1.934a1.183,1.183,0,0,0,1.123.809H12a1.183,1.183,0,0,0,1.124-.809l.644-1.934a8.809,8.809,0,0,0,1.7-.705l1.824.912a1.183,1.183,0,0,0,1.365-.222l1.07-1.07a1.183,1.183,0,0,0,.222-1.366l-.912-1.824a8.81,8.81,0,0,0,.705-1.7l1.934-.644A1.183,1.183,0,0,0,22.48,34V32.483a1.183,1.183,0,0,0-.809-1.124l-1.934-.644a8.81,8.81,0,0,0-.705-1.7l.912-1.824a1.183,1.183,0,0,0-.222-1.365l-1.07-1.07a1.183,1.183,0,0,0-1.366-.222l-1.824.912a8.81,8.81,0,0,0-1.7-.705l-.644-1.934A1.183,1.183,0,0,0,12,22H10.483a1.183,1.183,0,0,0-1.124.809l-.644,1.934a8.81,8.81,0,0,0-1.7.705l-1.823-.912a1.178,1.178,0,0,0-1.365.222l-1.07,1.07a1.183,1.183,0,0,0-.222,1.366l.912,1.824a8.81,8.81,0,0,0-.705,1.7L.809,31.36A1.183,1.183,0,0,0,0,32.483V34a1.183,1.183,0,0,0,.809,1.123Zm.374-2.636,2.232-.744a.592.592,0,0,0,.386-.414,7.622,7.622,0,0,1,.828-1.989.592.592,0,0,0,.02-.566L3.6,26.663l1.07-1.07,2.106,1.053a.592.592,0,0,0,.566-.02A7.622,7.622,0,0,1,9.328,25.8a.592.592,0,0,0,.414-.386l.741-2.229H12l.744,2.232a.592.592,0,0,0,.414.386,7.622,7.622,0,0,1,1.989.828.592.592,0,0,0,.566.02L17.816,25.6l1.07,1.07-1.053,2.106a.592.592,0,0,0,.02.566,7.622,7.622,0,0,1,.828,1.989.592.592,0,0,0,.386.414l2.229.741V34l-2.232.744a.592.592,0,0,0-.386.414,7.622,7.622,0,0,1-.828,1.989.592.592,0,0,0-.02.566l1.053,2.106-1.07,1.07-2.106-1.053a.592.592,0,0,0-.566.02,7.622,7.622,0,0,1-1.989.828.592.592,0,0,0-.414.386L12,43.3H10.483l-.744-2.232a.592.592,0,0,0-.414-.386,7.622,7.622,0,0,1-1.989-.828.592.592,0,0,0-.566-.02L4.663,40.883l-1.07-1.068L4.647,37.71a.592.592,0,0,0-.02-.566A7.622,7.622,0,0,1,3.8,35.154a.592.592,0,0,0-.386-.414L1.183,34Z" transform="translate(0 -8.985)" fill="#fff"/>
    <path id="Shape-4" data-name="Shape" d="M14.507,43.015A6.507,6.507,0,1,0,8,36.507,6.507,6.507,0,0,0,14.507,43.015Zm0-11.831a5.324,5.324,0,1,1-5.324,5.324A5.324,5.324,0,0,1,14.507,31.183Z" transform="translate(-3.267 -12.253)" fill="#fff"/>
    <path id="Shape-5" data-name="Shape" d="M17.366,41.733A2.366,2.366,0,1,0,15,39.366,2.366,2.366,0,0,0,17.366,41.733Zm0-3.549a1.183,1.183,0,1,1-1.183,1.183A1.183,1.183,0,0,1,17.366,38.183Z" transform="translate(-6.126 -15.112)" fill="#fff"/>
  </g>
</svg>
